<svg width="219" height="73" viewBox="0 0 219 73" fill="none" xmlns="http://www.w3.org/2000/svg">
<path d="M14.0469 3.75V72H0.03125V3.75H14.0469ZM33.6406 3.75H45.5469L63.0781 53.8594L80.6094 3.75H92.5156L67.8594 72H58.2969L33.6406 3.75ZM27.2188 3.75H39.0781L41.2344 52.5938V72H27.2188V3.75ZM87.0781 3.75H98.9844V72H84.9219V52.5938L87.0781 3.75ZM132.266 72H117.406L117.5 61.0312H132.266C135.953 61.0312 139.062 60.2031 141.594 58.5469C144.125 56.8594 146.031 54.4062 147.312 51.1875C148.625 47.9688 149.281 44.0781 149.281 39.5156V36.1875C149.281 32.6875 148.906 29.6094 148.156 26.9531C147.438 24.2969 146.359 22.0625 144.922 20.25C143.484 18.4375 141.719 17.0781 139.625 16.1719C137.531 15.2344 135.125 14.7656 132.406 14.7656H117.125V3.75H132.406C136.969 3.75 141.141 4.53125 144.922 6.09375C148.734 7.625 152.031 9.82813 154.812 12.7031C157.594 15.5781 159.734 19.0156 161.234 23.0156C162.766 26.9844 163.531 31.4062 163.531 36.2812V39.5156C163.531 44.3594 162.766 48.7812 161.234 52.7812C159.734 56.7812 157.594 60.2188 154.812 63.0938C152.062 65.9375 148.766 68.1406 144.922 69.7031C141.109 71.2344 136.891 72 132.266 72ZM125.375 3.75V72H111.312V3.75H125.375ZM172.906 0H186.406V60.375L185.047 72H172.906V0ZM218.516 46.125V47.1094C218.516 50.8906 218.109 54.3594 217.297 57.5156C216.516 60.6719 215.297 63.4062 213.641 65.7188C211.984 68 209.922 69.7812 207.453 71.0625C205.016 72.3125 202.141 72.9375 198.828 72.9375C195.734 72.9375 193.047 72.3125 190.766 71.0625C188.516 69.8125 186.625 68.0469 185.094 65.7656C183.562 63.4844 182.328 60.8125 181.391 57.75C180.453 54.6875 179.75 51.3438 179.281 47.7188V45.5625C179.75 41.9375 180.453 38.5938 181.391 35.5312C182.328 32.4688 183.562 29.7969 185.094 27.5156C186.625 25.2344 188.516 23.4688 190.766 22.2188C193.016 20.9688 195.672 20.3438 198.734 20.3438C202.078 20.3438 204.984 20.9844 207.453 22.2656C209.953 23.5156 212.016 25.2969 213.641 27.6094C215.297 29.8906 216.516 32.6094 217.297 35.7656C218.109 38.8906 218.516 42.3438 218.516 46.125ZM205.016 47.1094V46.125C205.016 44.0625 204.859 42.125 204.547 40.3125C204.266 38.4688 203.766 36.8594 203.047 35.4844C202.328 34.0781 201.344 32.9688 200.094 32.1562C198.875 31.3438 197.297 30.9375 195.359 30.9375C193.516 30.9375 191.953 31.25 190.672 31.875C189.391 32.5 188.328 33.375 187.484 34.5C186.672 35.625 186.062 36.9688 185.656 38.5312C185.25 40.0625 185 41.75 184.906 43.5938V49.7344C185 52.2031 185.406 54.3906 186.125 56.2969C186.875 58.1719 188 59.6562 189.5 60.75C191.031 61.8125 193.016 62.3438 195.453 62.3438C197.359 62.3438 198.938 61.9688 200.188 61.2188C201.438 60.4688 202.406 59.4062 203.094 58.0312C203.812 56.6562 204.312 55.0469 204.594 53.2031C204.875 51.3281 205.016 49.2969 205.016 47.1094Z" fill="white"/>
</svg>
